<mxfile host="app.diagrams.net" agent="Mozilla/5.0 (Windows NT 10.0; Win64; x64) AppleWebKit/537.36 (KHTML, like Gecko) Chrome/134.0.0.0 Safari/537.36" version="26.0.14">
  <diagram name="Trang-1" id="OyH2qnpsbt_YQSMILOVl">
    <mxGraphModel dx="1307" dy="1523" grid="1" gridSize="10" guides="1" tooltips="1" connect="1" arrows="1" fold="1" page="1" pageScale="1" pageWidth="850" pageHeight="1100" math="0" shadow="0">
      <root>
        <mxCell id="0" />
        <mxCell id="1" parent="0" />
        <mxCell id="AVIp1KGArj6XtRQ8XkTd-1" value="Use Case Khách hàng tiềm năng" style="text;html=1;align=center;verticalAlign=middle;whiteSpace=wrap;rounded=0;" vertex="1" parent="1">
          <mxGeometry x="50" y="110" width="190" height="30" as="geometry" />
        </mxCell>
        <mxCell id="AVIp1KGArj6XtRQ8XkTd-2" value="KH tiềm năng" style="shape=umlActor;verticalLabelPosition=bottom;verticalAlign=top;html=1;outlineConnect=0;" vertex="1" parent="1">
          <mxGeometry x="60" y="339" width="30" height="60" as="geometry" />
        </mxCell>
        <mxCell id="AVIp1KGArj6XtRQ8XkTd-8" value="Xem trang chủ" style="ellipse;whiteSpace=wrap;html=1;" vertex="1" parent="1">
          <mxGeometry x="120" y="150" width="130" height="40" as="geometry" />
        </mxCell>
        <mxCell id="AVIp1KGArj6XtRQ8XkTd-10" value="" style="endArrow=none;html=1;rounded=0;entryX=0.05;entryY=0.708;entryDx=0;entryDy=0;entryPerimeter=0;" edge="1" parent="1" target="AVIp1KGArj6XtRQ8XkTd-8">
          <mxGeometry width="50" height="50" relative="1" as="geometry">
            <mxPoint x="90" y="320" as="sourcePoint" />
            <mxPoint x="230" y="220" as="targetPoint" />
          </mxGeometry>
        </mxCell>
        <mxCell id="AVIp1KGArj6XtRQ8XkTd-12" value="Xem sản phẩm" style="ellipse;whiteSpace=wrap;html=1;" vertex="1" parent="1">
          <mxGeometry x="270" y="160" width="130" height="40" as="geometry" />
        </mxCell>
        <mxCell id="AVIp1KGArj6XtRQ8XkTd-14" value="" style="endArrow=none;html=1;rounded=0;entryX=0;entryY=0.5;entryDx=0;entryDy=0;" edge="1" parent="1" target="AVIp1KGArj6XtRQ8XkTd-12">
          <mxGeometry width="50" height="50" relative="1" as="geometry">
            <mxPoint x="110" y="320" as="sourcePoint" />
            <mxPoint x="220" y="220" as="targetPoint" />
          </mxGeometry>
        </mxCell>
        <mxCell id="AVIp1KGArj6XtRQ8XkTd-15" value="Tìm kiếm" style="ellipse;whiteSpace=wrap;html=1;" vertex="1" parent="1">
          <mxGeometry x="340" y="220" width="130" height="40" as="geometry" />
        </mxCell>
        <mxCell id="AVIp1KGArj6XtRQ8XkTd-16" value="" style="endArrow=none;html=1;rounded=0;entryX=0;entryY=0.5;entryDx=0;entryDy=0;" edge="1" parent="1" target="AVIp1KGArj6XtRQ8XkTd-15">
          <mxGeometry width="50" height="50" relative="1" as="geometry">
            <mxPoint x="110" y="340" as="sourcePoint" />
            <mxPoint x="280" y="190" as="targetPoint" />
          </mxGeometry>
        </mxCell>
        <mxCell id="AVIp1KGArj6XtRQ8XkTd-17" value="Xem chi tiết sản phẩm" style="ellipse;whiteSpace=wrap;html=1;" vertex="1" parent="1">
          <mxGeometry x="360" y="280" width="150" height="40" as="geometry" />
        </mxCell>
        <mxCell id="AVIp1KGArj6XtRQ8XkTd-18" value="" style="endArrow=none;html=1;rounded=0;entryX=0;entryY=0.5;entryDx=0;entryDy=0;" edge="1" parent="1" target="AVIp1KGArj6XtRQ8XkTd-17">
          <mxGeometry width="50" height="50" relative="1" as="geometry">
            <mxPoint x="110" y="350" as="sourcePoint" />
            <mxPoint x="170" y="320" as="targetPoint" />
          </mxGeometry>
        </mxCell>
        <mxCell id="AVIp1KGArj6XtRQ8XkTd-19" value="Xem khuyến mãi" style="ellipse;whiteSpace=wrap;html=1;" vertex="1" parent="1">
          <mxGeometry x="360" y="339" width="130" height="40" as="geometry" />
        </mxCell>
        <mxCell id="AVIp1KGArj6XtRQ8XkTd-20" value="" style="endArrow=none;html=1;rounded=0;entryX=0;entryY=0.5;entryDx=0;entryDy=0;" edge="1" parent="1" target="AVIp1KGArj6XtRQ8XkTd-19">
          <mxGeometry width="50" height="50" relative="1" as="geometry">
            <mxPoint x="110" y="370" as="sourcePoint" />
            <mxPoint x="310" y="300" as="targetPoint" />
          </mxGeometry>
        </mxCell>
        <mxCell id="AVIp1KGArj6XtRQ8XkTd-21" value="Xem so sánh" style="ellipse;whiteSpace=wrap;html=1;" vertex="1" parent="1">
          <mxGeometry x="350" y="399" width="130" height="40" as="geometry" />
        </mxCell>
        <mxCell id="AVIp1KGArj6XtRQ8XkTd-23" value="" style="endArrow=none;html=1;rounded=0;entryX=0;entryY=0.5;entryDx=0;entryDy=0;" edge="1" parent="1" target="AVIp1KGArj6XtRQ8XkTd-21">
          <mxGeometry width="50" height="50" relative="1" as="geometry">
            <mxPoint x="110" y="380" as="sourcePoint" />
            <mxPoint x="170" y="390" as="targetPoint" />
          </mxGeometry>
        </mxCell>
        <mxCell id="AVIp1KGArj6XtRQ8XkTd-24" value="Quản lý giỏ hàng" style="ellipse;whiteSpace=wrap;html=1;" vertex="1" parent="1">
          <mxGeometry x="330" y="460" width="130" height="40" as="geometry" />
        </mxCell>
        <mxCell id="AVIp1KGArj6XtRQ8XkTd-25" value="" style="endArrow=none;html=1;rounded=0;entryX=0;entryY=0.5;entryDx=0;entryDy=0;" edge="1" parent="1" target="AVIp1KGArj6XtRQ8XkTd-24">
          <mxGeometry width="50" height="50" relative="1" as="geometry">
            <mxPoint x="120" y="400" as="sourcePoint" />
            <mxPoint x="110" y="500" as="targetPoint" />
          </mxGeometry>
        </mxCell>
        <mxCell id="AVIp1KGArj6XtRQ8XkTd-26" value="Chat" style="ellipse;whiteSpace=wrap;html=1;" vertex="1" parent="1">
          <mxGeometry x="290" y="540" width="130" height="40" as="geometry" />
        </mxCell>
        <mxCell id="AVIp1KGArj6XtRQ8XkTd-27" value="" style="endArrow=none;html=1;rounded=0;entryX=0.068;entryY=0.258;entryDx=0;entryDy=0;entryPerimeter=0;" edge="1" parent="1" target="AVIp1KGArj6XtRQ8XkTd-26">
          <mxGeometry width="50" height="50" relative="1" as="geometry">
            <mxPoint x="120" y="430" as="sourcePoint" />
            <mxPoint x="310" y="430" as="targetPoint" />
          </mxGeometry>
        </mxCell>
        <mxCell id="AVIp1KGArj6XtRQ8XkTd-28" value="Đăng ký thành viên" style="ellipse;whiteSpace=wrap;html=1;" vertex="1" parent="1">
          <mxGeometry x="120" y="590" width="130" height="40" as="geometry" />
        </mxCell>
        <mxCell id="AVIp1KGArj6XtRQ8XkTd-29" value="" style="endArrow=none;html=1;rounded=0;exitX=0.388;exitY=0.044;exitDx=0;exitDy=0;exitPerimeter=0;" edge="1" parent="1" source="AVIp1KGArj6XtRQ8XkTd-28">
          <mxGeometry width="50" height="50" relative="1" as="geometry">
            <mxPoint x="260" y="490" as="sourcePoint" />
            <mxPoint x="100" y="440" as="targetPoint" />
          </mxGeometry>
        </mxCell>
        <mxCell id="AVIp1KGArj6XtRQ8XkTd-30" value="Xem theo chủng loại" style="ellipse;whiteSpace=wrap;html=1;" vertex="1" parent="1">
          <mxGeometry x="630" y="100" width="130" height="40" as="geometry" />
        </mxCell>
        <mxCell id="AVIp1KGArj6XtRQ8XkTd-31" value="Xem theo nhà sản xuất" style="ellipse;whiteSpace=wrap;html=1;" vertex="1" parent="1">
          <mxGeometry x="630" y="190" width="150" height="40" as="geometry" />
        </mxCell>
        <mxCell id="AVIp1KGArj6XtRQ8XkTd-32" value="" style="endArrow=classic;html=1;rounded=0;" edge="1" parent="1" source="AVIp1KGArj6XtRQ8XkTd-12">
          <mxGeometry width="50" height="50" relative="1" as="geometry">
            <mxPoint x="580" y="170" as="sourcePoint" />
            <mxPoint x="630" y="120" as="targetPoint" />
          </mxGeometry>
        </mxCell>
        <mxCell id="AVIp1KGArj6XtRQ8XkTd-35" value="&amp;lt;include&amp;gt;" style="edgeLabel;html=1;align=center;verticalAlign=middle;resizable=0;points=[];" vertex="1" connectable="0" parent="AVIp1KGArj6XtRQ8XkTd-32">
          <mxGeometry x="-0.0659" y="-1" relative="1" as="geometry">
            <mxPoint as="offset" />
          </mxGeometry>
        </mxCell>
        <mxCell id="AVIp1KGArj6XtRQ8XkTd-36" value="" style="endArrow=classic;html=1;rounded=0;entryX=0;entryY=0.5;entryDx=0;entryDy=0;exitX=1;exitY=0.5;exitDx=0;exitDy=0;" edge="1" parent="1" source="AVIp1KGArj6XtRQ8XkTd-12" target="AVIp1KGArj6XtRQ8XkTd-31">
          <mxGeometry width="50" height="50" relative="1" as="geometry">
            <mxPoint x="470" y="240" as="sourcePoint" />
            <mxPoint x="520" y="190" as="targetPoint" />
          </mxGeometry>
        </mxCell>
        <mxCell id="AVIp1KGArj6XtRQ8XkTd-38" value="&amp;lt;include&amp;gt;" style="edgeLabel;html=1;align=center;verticalAlign=middle;resizable=0;points=[];" vertex="1" connectable="0" parent="AVIp1KGArj6XtRQ8XkTd-36">
          <mxGeometry x="-0.1701" y="-1" relative="1" as="geometry">
            <mxPoint y="1" as="offset" />
          </mxGeometry>
        </mxCell>
        <mxCell id="AVIp1KGArj6XtRQ8XkTd-39" value="Mua hàng" style="ellipse;whiteSpace=wrap;html=1;" vertex="1" parent="1">
          <mxGeometry x="640" y="460" width="130" height="40" as="geometry" />
        </mxCell>
        <mxCell id="AVIp1KGArj6XtRQ8XkTd-40" value="" style="endArrow=classic;html=1;rounded=0;entryX=0;entryY=0.5;entryDx=0;entryDy=0;" edge="1" parent="1" target="AVIp1KGArj6XtRQ8XkTd-39">
          <mxGeometry width="50" height="50" relative="1" as="geometry">
            <mxPoint x="460" y="480" as="sourcePoint" />
            <mxPoint x="510" y="430" as="targetPoint" />
          </mxGeometry>
        </mxCell>
        <mxCell id="AVIp1KGArj6XtRQ8XkTd-41" value="&amp;lt;include&amp;gt;" style="edgeLabel;html=1;align=center;verticalAlign=middle;resizable=0;points=[];" vertex="1" connectable="0" parent="AVIp1KGArj6XtRQ8XkTd-40">
          <mxGeometry x="-0.1185" y="-3" relative="1" as="geometry">
            <mxPoint as="offset" />
          </mxGeometry>
        </mxCell>
        <mxCell id="AVIp1KGArj6XtRQ8XkTd-42" value="Người bán hàng" style="shape=umlActor;verticalLabelPosition=bottom;verticalAlign=top;html=1;outlineConnect=0;" vertex="1" parent="1">
          <mxGeometry x="711" y="630" width="30" height="60" as="geometry" />
        </mxCell>
        <mxCell id="AVIp1KGArj6XtRQ8XkTd-43" value="" style="endArrow=none;html=1;rounded=0;" edge="1" parent="1" source="AVIp1KGArj6XtRQ8XkTd-26">
          <mxGeometry width="50" height="50" relative="1" as="geometry">
            <mxPoint x="420" y="560" as="sourcePoint" />
            <mxPoint x="690" y="650" as="targetPoint" />
          </mxGeometry>
        </mxCell>
        <mxCell id="AVIp1KGArj6XtRQ8XkTd-45" value="Đăng nhập" style="ellipse;whiteSpace=wrap;html=1;" vertex="1" parent="1">
          <mxGeometry x="340" y="690" width="130" height="40" as="geometry" />
        </mxCell>
        <mxCell id="AVIp1KGArj6XtRQ8XkTd-46" value="" style="endArrow=none;html=1;rounded=0;" edge="1" parent="1">
          <mxGeometry width="50" height="50" relative="1" as="geometry">
            <mxPoint x="470" y="710" as="sourcePoint" />
            <mxPoint x="680" y="680" as="targetPoint" />
          </mxGeometry>
        </mxCell>
        <mxCell id="AVIp1KGArj6XtRQ8XkTd-47" value="Khách hàng" style="shape=umlActor;verticalLabelPosition=bottom;verticalAlign=top;html=1;outlineConnect=0;" vertex="1" parent="1">
          <mxGeometry x="70" y="707" width="30" height="60" as="geometry" />
        </mxCell>
        <mxCell id="AVIp1KGArj6XtRQ8XkTd-50" value="" style="endArrow=none;html=1;rounded=0;entryX=0;entryY=0.5;entryDx=0;entryDy=0;" edge="1" parent="1" target="AVIp1KGArj6XtRQ8XkTd-45">
          <mxGeometry width="50" height="50" relative="1" as="geometry">
            <mxPoint x="108.57142857142857" y="740" as="sourcePoint" />
            <mxPoint x="440" y="620" as="targetPoint" />
          </mxGeometry>
        </mxCell>
        <mxCell id="AVIp1KGArj6XtRQ8XkTd-51" value="Quản lý đơn hàng cá nhân" style="ellipse;whiteSpace=wrap;html=1;" vertex="1" parent="1">
          <mxGeometry x="180" y="800" width="180" height="50" as="geometry" />
        </mxCell>
        <mxCell id="AVIp1KGArj6XtRQ8XkTd-52" value="" style="endArrow=none;html=1;rounded=0;entryX=0;entryY=0.5;entryDx=0;entryDy=0;" edge="1" parent="1" target="AVIp1KGArj6XtRQ8XkTd-51">
          <mxGeometry width="50" height="50" relative="1" as="geometry">
            <mxPoint x="110" y="760" as="sourcePoint" />
            <mxPoint x="390" y="610" as="targetPoint" />
          </mxGeometry>
        </mxCell>
        <mxCell id="AVIp1KGArj6XtRQ8XkTd-53" value="Thanh toán" style="ellipse;whiteSpace=wrap;html=1;" vertex="1" parent="1">
          <mxGeometry x="150" y="950" width="130" height="40" as="geometry" />
        </mxCell>
        <mxCell id="AVIp1KGArj6XtRQ8XkTd-54" value="" style="endArrow=classic;html=1;rounded=0;exitX=0.5;exitY=1;exitDx=0;exitDy=0;entryX=0.626;entryY=-0.063;entryDx=0;entryDy=0;entryPerimeter=0;" edge="1" parent="1" source="AVIp1KGArj6XtRQ8XkTd-51" target="AVIp1KGArj6XtRQ8XkTd-53">
          <mxGeometry width="50" height="50" relative="1" as="geometry">
            <mxPoint x="410" y="940" as="sourcePoint" />
            <mxPoint x="460" y="890" as="targetPoint" />
          </mxGeometry>
        </mxCell>
        <mxCell id="AVIp1KGArj6XtRQ8XkTd-59" value="&amp;lt;include&amp;gt;" style="edgeLabel;html=1;align=center;verticalAlign=middle;resizable=0;points=[];" vertex="1" connectable="0" parent="AVIp1KGArj6XtRQ8XkTd-54">
          <mxGeometry x="0.027" y="-1" relative="1" as="geometry">
            <mxPoint as="offset" />
          </mxGeometry>
        </mxCell>
        <mxCell id="AVIp1KGArj6XtRQ8XkTd-56" value="Quản lý đơn hàng" style="ellipse;whiteSpace=wrap;html=1;" vertex="1" parent="1">
          <mxGeometry x="520" y="810" width="150" height="40" as="geometry" />
        </mxCell>
        <mxCell id="AVIp1KGArj6XtRQ8XkTd-57" value="" style="endArrow=none;html=1;rounded=0;exitX=0.5;exitY=0;exitDx=0;exitDy=0;" edge="1" parent="1" source="AVIp1KGArj6XtRQ8XkTd-56">
          <mxGeometry width="50" height="50" relative="1" as="geometry">
            <mxPoint x="620" y="760" as="sourcePoint" />
            <mxPoint x="710" y="720" as="targetPoint" />
          </mxGeometry>
        </mxCell>
        <mxCell id="AVIp1KGArj6XtRQ8XkTd-60" value="Thu tiền" style="ellipse;whiteSpace=wrap;html=1;" vertex="1" parent="1">
          <mxGeometry x="430" y="940" width="130" height="40" as="geometry" />
        </mxCell>
        <mxCell id="AVIp1KGArj6XtRQ8XkTd-61" value="Theo dõi chuyển hàng" style="ellipse;whiteSpace=wrap;html=1;" vertex="1" parent="1">
          <mxGeometry x="630" y="940" width="150" height="40" as="geometry" />
        </mxCell>
        <mxCell id="AVIp1KGArj6XtRQ8XkTd-63" value="" style="endArrow=classic;html=1;rounded=0;entryX=0.454;entryY=-0.014;entryDx=0;entryDy=0;entryPerimeter=0;" edge="1" parent="1" source="AVIp1KGArj6XtRQ8XkTd-56" target="AVIp1KGArj6XtRQ8XkTd-60">
          <mxGeometry width="50" height="50" relative="1" as="geometry">
            <mxPoint x="530" y="760" as="sourcePoint" />
            <mxPoint x="580" y="710" as="targetPoint" />
          </mxGeometry>
        </mxCell>
        <mxCell id="AVIp1KGArj6XtRQ8XkTd-65" value="&amp;lt;include&amp;gt;" style="edgeLabel;html=1;align=center;verticalAlign=middle;resizable=0;points=[];" vertex="1" connectable="0" parent="AVIp1KGArj6XtRQ8XkTd-63">
          <mxGeometry x="0.0446" y="-2" relative="1" as="geometry">
            <mxPoint as="offset" />
          </mxGeometry>
        </mxCell>
        <mxCell id="AVIp1KGArj6XtRQ8XkTd-64" value="" style="endArrow=classic;html=1;rounded=0;entryX=0.5;entryY=0;entryDx=0;entryDy=0;exitX=0.6;exitY=1.02;exitDx=0;exitDy=0;exitPerimeter=0;" edge="1" parent="1" source="AVIp1KGArj6XtRQ8XkTd-56" target="AVIp1KGArj6XtRQ8XkTd-61">
          <mxGeometry width="50" height="50" relative="1" as="geometry">
            <mxPoint x="460" y="660" as="sourcePoint" />
            <mxPoint x="510" y="610" as="targetPoint" />
          </mxGeometry>
        </mxCell>
        <mxCell id="AVIp1KGArj6XtRQ8XkTd-66" value="&amp;lt;include&amp;gt;" style="edgeLabel;html=1;align=center;verticalAlign=middle;resizable=0;points=[];" vertex="1" connectable="0" parent="AVIp1KGArj6XtRQ8XkTd-64">
          <mxGeometry x="-0.083" y="1" relative="1" as="geometry">
            <mxPoint y="-1" as="offset" />
          </mxGeometry>
        </mxCell>
      </root>
    </mxGraphModel>
  </diagram>
</mxfile>
